<?xml version="1.0" standalone="no"?>
<!DOCTYPE svg PUBLIC "-//W3C//DTD SVG 20010904//EN"
 "http://www.w3.org/TR/2001/REC-SVG-20010904/DTD/svg10.dtd">
<svg version="1.0" xmlns="http://www.w3.org/2000/svg"
 width="342.000000pt" height="342.000000pt" viewBox="0 0 342.000000 342.000000"
 preserveAspectRatio="xMidYMid meet">
<metadata>
Created by potrace 1.11, written by Peter Selinger 2001-2013
</metadata>
<g transform="translate(0.000000,342.000000) scale(0.100000,-0.100000)"
fill="#000000" stroke="none">
<path d="M1530 3331 c-245 -66 -433 -243 -516 -486 -25 -71 -28 -98 -32 -235
l-4 -156 633 1 c349 1 639 0 644 -2 6 -2 10 -126 9 -349 -2 -329 -3 -348 -24
-415 -79 -243 -309 -402 -560 -386 -224 15 -408 152 -487 363 -24 62 -27 87
-31 242 l-4 172 -90 0 -90 0 4 -187 c4 -173 7 -194 32 -267 78 -226 248 -396
472 -472 107 -36 267 -44 380 -19 227 49 427 211 519 420 58 130 58 134 62
628 l4 457 -646 0 -647 0 6 48 c32 225 197 410 416 467 85 22 230 16 315 -14
118 -42 256 -159 303 -259 13 -25 21 -32 37 -28 11 3 50 10 88 17 47 9 67 17
67 27 0 25 -66 133 -117 194 -106 124 -239 206 -395 243 -87 20 -265 19 -348
-4z"/>
<path d="M1645 1966 c-66 -29 -104 -105 -92 -182 13 -81 99 -142 180 -129 83
14 139 80 139 165 0 113 -122 192 -227 146z"/>
<path d="M399 730 c-95 -28 -144 -132 -105 -223 18 -44 36 -58 151 -120 77
-41 104 -62 118 -88 25 -47 17 -107 -19 -138 -24 -20 -36 -23 -86 -19 -70 5
-105 33 -114 89 -7 40 -24 53 -55 44 -27 -9 -25 -70 4 -120 32 -57 89 -86 170
-86 128 -1 193 64 185 186 -5 89 -32 120 -164 192 -82 44 -110 65 -122 89 -30
64 22 129 101 128 54 -1 79 -15 96 -51 7 -15 17 -35 21 -43 4 -8 18 -15 31
-15 20 0 24 6 27 35 8 97 -125 175 -239 140z"/>
<path d="M753 733 c-7 -2 -13 -14 -13 -26 0 -38 128 -617 139 -631 6 -7 23
-11 41 -8 35 5 29 -12 95 277 25 110 48 207 51 215 4 8 32 -97 64 -234 32
-136 61 -251 64 -254 7 -6 66 -5 72 1 10 10 135 613 132 637 -3 28 -38 40 -55
18 -6 -7 -32 -112 -58 -233 -25 -121 -49 -229 -52 -240 -4 -12 -30 80 -62 220
-31 132 -60 246 -64 253 -12 18 -65 15 -75 -5 -5 -10 -33 -123 -62 -250 -30
-128 -55 -231 -57 -230 -1 2 -25 108 -53 237 -28 128 -55 239 -61 247 -12 13
-25 15 -46 6z"/>
<path d="M1596 718 c-22 -36 -199 -617 -192 -634 4 -10 16 -14 33 -12 25 3 30
11 53 81 l25 78 118 -3 119 -3 24 -76 c26 -83 41 -98 73 -71 21 17 20 19 -75
327 -53 171 -104 316 -112 323 -24 18 -50 15 -66 -10z m88 -276 l44 -142 -95
0 c-85 0 -94 2 -89 18 32 114 90 285 93 276 2 -5 23 -74 47 -152z"/>
<path d="M1963 728 c-8 -14 -14 -624 -6 -645 4 -11 58 -19 65 -10 1 1 5 110 8
242 l5 239 59 -134 c96 -219 111 -219 204 -9 34 78 64 145 66 147 3 2 4 -103
4 -233 -1 -148 3 -240 9 -246 6 -6 21 -9 34 -7 l24 3 3 319 c2 337 1 346 -44
346 -30 0 -38 -13 -125 -208 -70 -159 -72 -163 -84 -135 -76 176 -149 329
-158 335 -19 12 -55 9 -64 -4z"/>
<path d="M2592 728 c-9 -9 -12 -94 -12 -319 0 -169 3 -314 6 -323 6 -16 62
-23 66 -8 6 31 3 631 -4 645 -10 20 -39 22 -56 5z"/>
<path d="M2786 714 c-3 -9 -6 -152 -6 -318 0 -222 3 -305 12 -314 8 -8 47 -12
110 -12 105 0 154 13 196 53 52 48 56 68 56 277 0 169 -3 200 -18 230 -22 41
-33 52 -77 79 -29 18 -50 21 -150 21 -97 0 -118 -3 -123 -16z m260 -88 l34
-34 0 -183 c0 -165 -2 -187 -20 -216 -23 -38 -68 -53 -150 -50 l-55 2 -2 258
-1 257 80 0 c78 0 81 -1 114 -34z"/>
</g>
</svg>
